<?xml version="1.0" encoding="UTF-8"?>
<svg version="1.1" xmlns="http://www.w3.org/2000/svg" width="80" height="114">
<path d="M0 0 C8.59490471 4.78059788 16.35110651 12.01349489 19.5078125 21.578125 C21.35797397 31.45584659 20.83441553 41.21405432 15.98046875 50.1015625 C15.40941406 51.16632812 14.83835937 52.23109375 14.25 53.328125 C11.27564864 58.73762672 8.09577544 63.97595564 4.66357422 69.10620117 C-4.18429547 82.39342683 -10.67707956 96.46449832 -14.01953125 112.1015625 C-14.67953125 112.1015625 -15.33953125 112.1015625 -16.01953125 112.1015625 C-16.42171875 110.55662109 -16.42171875 110.55662109 -16.83203125 108.98046875 C-21.35487627 92.25646042 -28.57988434 78.43533193 -37.9987793 63.93432617 C-46.58939785 50.688946 -53.20173234 39.31206924 -50.01953125 23.1015625 C-46.44945559 13.11014269 -41.21013594 6.07036113 -31.76953125 1.2265625 C-22.58854114 -3.07880864 -9.60752816 -3.9768105 0 0 Z M-24.01953125 24.1015625 C-26.00972067 26.41275021 -26.96349375 27.95279382 -27.11328125 31.0234375 C-26.75817155 35.74639655 -25.68980543 38.90183629 -22.01953125 42.1015625 C-18.58241137 43.8315541 -15.61994075 44.43819052 -11.828125 43.640625 C-8.59950937 42.34442204 -6.6111033 41.04517437 -4.74609375 38.0703125 C-3.19254006 34.1930674 -2.56623999 31.19288296 -4.08203125 27.2265625 C-6.9885322 22.53865774 -8.50224608 21.46864762 -13.89453125 20.1640625 C-18.35121681 19.75740032 -20.65092662 21.12465608 -24.01953125 24.1015625 Z " fill="#C82929" transform="translate(55.01953125,1.8984375)"/>
</svg>
